<svg version="1.1" xmlns="http://www.w3.org/2000/svg" xmlns:xlink="http://www.w3.org/1999/xlink" x="0px" y="0px"
	 viewBox="280 0 360 600" style="enable-background:new 280 0 360 600;" xml:space="preserve">
<style type="text/css">
	.st0{fill:#fcfaf9;stroke:#000000;stroke-miterlimit:10;}
	.st1{fill:#ffffff;stroke:#000000;stroke-miterlimit:10;}
	.parca_org > .st0
	{
		fill:#d0f3e2;

	}

	.parca_boyali > .st0 
	{
		fill:#2a40e1;

	}

	.parca_boyali > .st0:hover
	{
		fill:#1d2eab;

	}

	.parca_degismis > .st0  
	{
		fill:#e12a2a;

	}

	.parca_degismis > .st0:hover  
	{
		fill:#a12121;

	}

</style>
<g id="kapi_on_sol">
	<path class="st0" d="M310.5,238.5c-2.2-22.2-5.3-43.2-9-63h-9v126l21.5,0C313.7,281.2,312.6,260.2,310.5,238.5z"/>
</g>
<g id="kapi_on_sag">
	<path class="st0" d="M454.5,238.5c2.2-22.2,5.3-43.2,9-63h9v126l-21.5,0C451.3,281.2,452.4,260.2,454.5,238.5z"/>
</g>
<g id="kapi_arka_sag">
	<path class="st0" d="M451,301.5c-0.5,42.6,2.8,81.8,8,117l0,0h13.5v-117L451,301.5"/>
</g>
<g id="kapi_arka_sol">
	<path class="st0" d="M314,301.5c0.5,42.6-2.8,81.8-8,117l0,0h-13.5v-117L314,301.5"/>
</g>
<g id="camurluk_arka_sol">
	<path class="st0" d="M306,418.5c-1.4,9.3-2.9,18.3-4.5,27l9,9c0,18,0,36,0,54c-18-9-18-18-18-18c-2.8-13.1-5-30.2-3.3-50
		c0.7-8,1.9-15.4,3.3-22L306,418.5L306,418.5z"/>
</g>
<g id="camurluk_arka_sag">
	<path class="st0" d="M459,418.5c1.4,9.3,2.9,18.3,4.5,27l-9,9c0,18,0,36,0,54c18-9,18-18,18-18c2.8-13.1,5-30.2,3.3-50
		c-0.7-8-1.9-15.4-3.3-22L459,418.5L459,418.5z"/>
</g>
<g id="bagaj_kapagi">
	<path class="st0" d="M310.5,508.5c0-18,0-36,0-54c29.3,10,54.9,12,72,12c31.5,0,57.4-7,72-12v54c-18.2,4.6-42.8,9-72,9
		C363.7,517.5,338.8,515.7,310.5,508.5z"/>
</g>
<g id="cam_arka">
	<path class="st1" d="M310.4,382.5c-2.2,22.4-5.3,43.5-8.9,63l9,9c29.3,10,54.9,12,72,12c31.5,0,57.4-7,72-12l9-9
		c-3.6-19.5-6.7-40.6-8.9-63l-0.1,0c-28.3,7.2-53.2,9-72,9C353.3,391.5,328.7,387.1,310.4,382.5"/>
</g>
<g id="tavan">
	<path class="st0" d="M301.5,445.5"/>
	<path class="st0" d="M310.4,382.5c4.3-43.4,5.2-91.7,0.1-144c18.2-4.6,42.8-9,72-9c18.8,0,43.7,1.8,72,9
		c-5.1,52.3-4.2,100.6,0.1,144l-0.1,0c-28.3,7.2-53.2,9-72,9C353.3,391.5,328.7,387.1,310.4,382.5L310.4,382.5z"/>
</g>
<g id="camurluk_on_sol">
	<path class="st0" d="M301.5,175.5l9-9v-96c-18.3,5.4-18,33-18,33v63v9H301.5l9-9v-96"/>
</g>
<g id="camurluk_on_sag">
	<path class="st0" d="M463.5,175.5h9v-9v-63c0,0,0.3-27.6-18-33v96L463.5,175.5z"/>
</g>
<g id="cam_on">
	<path class="st1" d="M310.5,238.5c18.2-4.6,42.8-9,72-9c18.8,0,43.7,1.8,72,9c2.2-22.2,5.3-43.2,9-63l-9-9c-16.1-5.5-41.1-12-72-12
		c-17.1,0-42.7,2-72,12l-9,9C305.2,195.3,308.3,216.3,310.5,238.5z"/>
</g>
<g id="kaput">
	<path class="st0" d="M454.5,70.5v96c-16.1-5.5-41.1-12-72-12c-17.1,0-42.7,2-72,12c0-32,0-64,0-96c16.1-5.5,41.1-12,72-12
		C399.6,58.5,425.2,60.5,454.5,70.5z"/>
</g>
<g id="tampon_on">
	<path class="st0" d="M310.5,25.5c16.1-5.5,41.1-12,72-12c17.1,0,42.7,2,72,12c18.3,5.4,18,33,18,33c-3,0-6,0-9,0
		c-33.9-15.8-64.4-18-81-18c-37.4,0-66,11-81,18h-9C292.5,58.5,292.2,30.9,310.5,25.5z"/>
</g>
<g id="tampon_arka">
	<path class="st0" d="M310.5,553.5c28.3,7.2,53.2,9,72,9c29.2,0,53.8-4.4,72-9c18-9,18-18,18-18v-9h-18c-18.2,4.6-42.8,9-72,9
		c-18.8,0-43.7-1.8-72-9h-18v9C292.5,535.5,292.5,544.5,310.5,553.5z"/>
</g>
</svg>
